<?xml version="1.0" encoding="UTF-8" standalone="no"?>
<!-- Created with Inkscape (http://www.inkscape.org/) -->

<svg
   width="127"
   height="92"
   viewBox="0 0 33.602081 24.341665"
   version="1.1"
   id="svg1"
   xmlns="http://www.w3.org/2000/svg"
   xmlns:svg="http://www.w3.org/2000/svg">
  <defs
     id="defs1" />
  <g
     id="layer1">
    <path
       style="font-weight:600;font-size:28.9278px;font-family:FreeSans;-inkscape-font-specification:'FreeSans Semi-Bold';fill:#d9d9d9;fill-opacity:0.85098;stroke-width:0.264583"
       d="m 16.914997,22.932011 q -0.31821,0 -0.95462,-0.11571 -0.60748,-0.11571 -1.2439,-0.34713 -1.50424,-0.54963 -3.21098,-0.75212 -1.7067403,-0.2025 -3.4134803,-0.2025 -1.30175,0 -2.63243,0.17357 -1.30175,0.14464 -2.51672,0.54962 -0.14464,0.0289 -0.318207,0.0868 -0.173566,0.0578 -0.347133,0.0578 -0.173567,0 -0.491773,-0.17356 -0.318206,-0.2025 -0.318206,-0.54963 0,-0.0579 0,-0.14464 0.02893,-0.11571 0.02893,-0.28928 0,-0.23142 0,-0.43391 0.02893,-0.231426 0.02893,-0.433921 v -0.318205 q 0,-0.231423 -0.115711,-0.781051 -0.08678,-0.578556 -0.08678,-0.694267 0.02893,-0.723195 0.173567,-1.967091 0.173566,-1.272814 0.404988,-2.777059 0.231423,-1.504246 0.491773,-2.979564 0.260352,-1.5042453 0.433922,-2.6902853 0.20249,-1.18604 0.28928,-1.764596 0.0868,-0.723195 0.14463,-1.330678 0.0579,-0.636412 0.26036,-1.128185 0.23142,-0.549628 0.78105,-0.809978 0.57855,-0.26035 1.0414,-0.433917 1.44639,-0.549628 2.97956,-0.954617 1.5621002,-0.40499 3.0663503,-0.40499 1.50424,0 2.97956,0.520701 1.47532,0.5207 2.54565,1.822451 1.07033,-1.301751 2.51671,-1.822451 1.47532,-0.520701 2.97957,-0.520701 1.53317,0 3.06635,0.433917 1.53317,0.40499 2.97956,0.92569 0.49177,0.173567 1.0414,0.433917 0.54963,0.26035 0.78105,0.809978 0.23142,0.491773 0.26035,1.157112 0.0579,0.636412 0.14464,1.301751 0.0868,0.578556 0.28928,1.764596 0.20249,1.18604 0.43391,2.6902853 0.26035,1.475318 0.49178,2.979564 0.26035,1.504245 0.40498,2.777068 0.17357,1.243896 0.17357,1.967091 0,0.115711 -0.0868,0.694267 -0.0868,0.549628 -0.0868,0.781051 v 1.619957 q 0,0.23142 -0.26035,0.49177 -0.23142,0.23142 -0.5207,0.23142 -0.34713,0 -0.69427,-0.14464 -1.18603,-0.40498 -2.48779,-0.54962 -1.30175,-0.17357 -2.63243,-0.17357 -1.70674,0 -3.41348,0.20249 -1.67781,0.2025 -3.21098,0.75213 -0.63641,0.20249 -1.2439,0.34713 -0.60748,0.11571 -0.92569,0.11571 z m -0.89677,-4.454879 q 0.14464,0 0.14464,-0.26035 v -3.876325 q 0,-1.475318 0,-3.15313 0,-1.7067403 0.0289,-3.2399143 0.0289,-1.533173 0.0868,-2.574574 -0.0289,-0.491772 -0.43391,-0.838906 -0.40499,-0.376061 -0.83891,-0.723195 -1.59103,-1.272823 -3.58705,-1.272823 -0.80997,0 -1.5621003,0.144639 -0.75212,0.115711 -1.5621,0.318206 -0.78105,0.202494 -1.59103,0.404989 -0.80998,0.202495 -1.47531,0.694267 -0.34714,0.26035 -0.46285,0.578556 -0.11571,0.318206 -0.17357,0.752123 -0.17356,1.012473 -0.28927,2.082801 -0.0868,1.041401 -0.23143,2.053874 -0.20249,1.5331743 -0.49177,3.0663473 -0.26035,1.533173 -0.5207,3.066347 -0.0868,0.462844 -0.17357,0.954617 -0.0868,0.491773 -0.0868,0.92569 0,0.115711 0.0579,0.26035 0.0579,0.115711 0.17356,0.115711 0.0868,0 0.37606,-0.115711 0.31821,-0.144639 0.54963,-0.202495 1.35961,-0.404989 2.71922,-0.607484 1.3596,-0.202494 2.77707,-0.202494 1.7645903,0 3.0374103,0.318206 1.30176,0.289278 2.42994,0.838906 0.26035,0.115711 0.57855,0.318206 0.31821,0.173566 0.5207,0.173566 z m 1.7646,0 q 0.14464,0 0.37606,-0.115711 1.50425,-0.838906 3.00849,-1.18604 1.53318,-0.347133 3.21099,-0.347133 1.38853,0 2.74814,0.202494 1.38853,0.202495 2.71921,0.607484 0.23143,0.05786 0.5207,0.202495 0.31821,0.115711 0.40499,0.115711 0.0868,0 0.14464,-0.05786 0.0868,-0.144639 0.0868,-0.318205 0,-0.144639 -0.0289,-0.260351 -0.0289,-0.115711 -0.0579,-0.231422 -0.20248,-1.880303 -0.57854,-3.76061 -0.34714,-1.880307 -0.60749,-3.7606143 -0.11571,-1.012473 -0.26035,-2.053874 -0.11571,-1.070328 -0.26035,-2.082801 -0.0579,-0.433917 -0.17357,-0.752123 -0.11571,-0.318206 -0.46284,-0.578556 -0.66534,-0.491772 -1.47532,-0.694267 -0.78105,-0.202495 -1.5621,-0.404989 -0.80998,-0.202495 -1.59103,-0.318206 -0.78105,-0.144639 -1.5621,-0.144639 -1.99602,0 -3.58705,1.272823 -0.43391,0.347134 -0.8389,0.723195 -0.37606,0.347134 -0.43392,0.838906 0.0579,1.070329 0.0868,2.661358 0.0289,1.591029 0.0289,3.3266973 0,1.70674 0,3.210985 v 3.644903 q 0,0.26035 0.14464,0.26035 z M 13.877577,6.3853117 q -0.17357,0 -0.26035,-0.05786 -1.64889,-0.78105 -3.58705,-0.78105 -0.8099803,0 -1.5910303,0.173566 -0.78105,0.144639 -1.44639,0.462845 -0.17357,0.05786 -0.23142,0.05786 -0.26035,0 -0.43392,-0.173567 -0.14464,-0.202494 -0.14464,-0.404989 0,-0.26035 0.26035,-0.376061 1.7646,-0.838906 3.8184703,-0.838906 1.0414,0 2.05388,0.231422 1.01247,0.202495 1.90923,0.607484 0.31821,0.144639 0.31821,0.462845 0,0.231422 -0.2025,0.433917 -0.20249,0.202494 -0.46284,0.202494 z m 6.04591,0 q -0.28928,0 -0.49178,-0.202494 -0.17356,-0.202495 -0.17356,-0.433917 0,-0.318206 0.46284,-0.549629 0.49178,-0.26035 1.18604,-0.404989 0.7232,-0.173567 1.44639,-0.26035 0.7232,-0.08678 1.18604,-0.08678 2.0828,0 3.81847,0.838906 0.26035,0.115711 0.26035,0.376062 0,0.202494 -0.17356,0.404989 -0.14464,0.173567 -0.37607,0.173567 -0.11571,0 -0.23142,-0.05786 -0.69427,-0.318206 -1.47532,-0.462845 -0.78105,-0.173567 -1.59102,-0.173567 -1.93817,0 -3.58705,0.781051 -0.0579,0.02893 -0.14464,0.05786 -0.0578,0 -0.11571,-10e-7 z m -6.04591,2.805997 q -0.0289,0 -0.0868,0 -0.0289,-0.02893 -0.0868,-0.02893 -1.0414,-0.404989 -2.19851,-0.665339 -1.15712,-0.289278 -2.3142303,-0.289278 -1.44639,0 -2.71921,0.549628 -0.0868,0.02893 -0.2025,0.02893 -0.20249,0 -0.34713,-0.144639 -0.14464,-0.144639 -0.14464,-0.318206 0,-0.26035 0.23142,-0.376062 0.83891,-0.433917 1.73567,-0.607483 0.89676,-0.173567 1.79352,-0.173567 1.1860403,0 2.3720803,0.26035 1.18604,0.26035 2.22744,0.723195 0.26036,0.115711 0.26036,0.433917 0,0.202495 -0.14464,0.404989 -0.14464,0.202495 -0.37607,0.202495 z m 6.04591,0 q -0.2025,0 -0.37606,-0.202495 -0.14464,-0.202494 -0.14464,-0.404989 0,-0.318206 0.26035,-0.433917 1.0414,-0.462845 2.22744,-0.723195 1.18604,-0.26035 2.37208,-0.26035 0.92569,0 1.82245,0.173567 0.89676,0.173566 1.70674,0.607483 0.26035,0.115712 0.26035,0.376062 0,0.144639 -0.17357,0.318206 -0.14464,0.144639 -0.37606,0.144639 -0.0868,0 -0.17357,-0.02893 -1.27282,-0.549628 -2.71921,-0.549628 -1.15711,0 -2.31422,0.289278 -1.15712,0.26035 -2.19852,0.665339 -0.0289,0 -0.0868,0.02893 -0.0289,0 -0.0868,0 z m -6.10377,2.7770693 q -0.14464,0 -0.34713,-0.08678 -0.2025,-0.08678 -0.34714,-0.144639 -0.20249,-0.08678 -0.40498,-0.144639 -0.17357,-0.05785 -0.40499,-0.115711 -0.63642,-0.173567 -1.30176,-0.26035 -0.63641,-0.115711 -1.3017503,-0.115711 -0.98354,0 -1.90923,0.144639 -0.92569,0.144639 -1.88031,0.404989 -0.0289,0.02893 -0.11571,0.02893 -0.20249,0 -0.34713,-0.144639 -0.14464,-0.173567 -0.14464,-0.347134 0,-0.231422 0.23142,-0.347134 0.86783,-0.462844 1.88031,-0.665339 1.0414,-0.2024953 2.05387,-0.2024953 0.9256903,0 1.8513803,0.1446383 0.92569,0.14464 1.73567,0.462846 0.23142,0.08678 0.49177,0.173567 0.26035,0.08678 0.46285,0.26035 l 0.0579,0.05786 q 0.14464,0.144639 0.14464,0.376061 0,0.202495 -0.11572,0.376062 -0.0868,0.144639 -0.28927,0.144639 z m 6.16162,0 q -0.20249,0 -0.3182,-0.144639 -0.0868,-0.144639 -0.0868,-0.347134 0,-0.202495 0.14464,-0.404989 l 0.0579,-0.05786 q 0.20249,-0.144639 0.46284,-0.231422 0.26035,-0.115711 0.49177,-0.202495 0.78105,-0.318206 1.70674,-0.462846 0.95462,-0.1446383 1.88031,-0.1446383 1.01247,0 2.02495,0.2024953 1.0414,0.202495 1.90923,0.665339 0.23142,0.115712 0.23142,0.347134 0,0.173567 -0.14463,0.347134 -0.14464,0.144639 -0.34714,0.144639 -0.0868,0 -0.11571,-0.02893 -0.89676,-0.231423 -1.79352,-0.376062 -0.86784,-0.173566 -1.79353,-0.173566 -1.47532,0 -2.80599,0.376061 -0.2025,0.05786 -0.40499,0.115711 -0.17357,0.02893 -0.40499,0.144639 -0.14464,0.05786 -0.34714,0.144639 -0.17356,0.08678 -0.34713,0.08678 z m -6.47982,2.834924 q -0.0868,0 -0.26035,-0.05786 -0.86784,-0.347133 -1.88031,-0.607484 -1.01247,-0.289278 -1.9670903,-0.289278 -0.98355,0 -1.85138,0.231423 -0.86783,0.202494 -1.79352,0.491772 -0.0579,0.02893 -0.14464,0.02893 -0.2025,0 -0.31821,-0.144639 -0.11571,-0.144639 -0.11571,-0.347133 0,-0.115712 0.0579,-0.231423 0.0579,-0.115711 0.23142,-0.173567 1.0414,-0.376061 2.14066,-0.578555 1.09925,-0.202495 2.16958,-0.202495 1.0414003,0 2.0249503,0.202495 1.01247,0.202494 1.96709,0.665339 0.3182,0.144639 0.3182,0.433917 0,0.202494 -0.17356,0.404989 -0.17357,0.173567 -0.40499,0.173567 z m 6.79803,0 q -0.23142,0 -0.40499,-0.173567 -0.17357,-0.202495 -0.17357,-0.404989 0,-0.289278 0.31821,-0.433917 0.95462,-0.462845 1.93816,-0.665339 1.01247,-0.202495 2.02495,-0.202495 1.09925,0 2.19851,0.202495 1.09926,0.202494 2.14066,0.578555 0.28927,0.115712 0.28927,0.433917 0,0.173567 -0.11571,0.318206 -0.0868,0.144639 -0.3182,0.144639 -0.0868,0 -0.14464,-0.02893 -0.92569,-0.26035 -1.79353,-0.491772 -0.8389,-0.231423 -1.82245,-0.231423 -0.98354,0 -1.99601,0.289278 -1.01248,0.260351 -1.88031,0.607484 -0.17357,0.05786 -0.26035,0.05786 z"
       id="text2"
       aria-label="🕮" />
  </g>
</svg>
