<?xml version="1.0" encoding="UTF-8" standalone="no"?>
<!-- Created with Inkscape (http://www.inkscape.org/) -->

<svg
   width="320"
   height="110"
   viewBox="0 0 84.666666 29.104167"
   version="1.1"
   id="svg1"
   xmlns="http://www.w3.org/2000/svg"
   xmlns:svg="http://www.w3.org/2000/svg">
  <defs
     id="defs1" />
  <g
     id="layer1">
    <rect
       style="display:none;fill:#e3e6e8;fill-opacity:1;fill-rule:nonzero;stroke-width:0.264583"
       id="rect2"
       width="96.634926"
       height="37.174969"
       x="-4.1971736"
       y="-3.397712" />
    <path
       style="font-weight:800;font-size:25.4px;font-family:'Atkinson Hyperlegible Next';-inkscape-font-specification:'Atkinson Hyperlegible Next Ultra-Bold';white-space:pre;inline-size:91.5966;fill:#0e1726;stroke-width:0.264583"
       d="m 108.8804,104.23481 q -2.667,0 -4.6228,-1.0414 -1.9304,-1.0668 -2.9718,-3.0226 -1.0414,-1.981202 -1.0414,-4.724402 0,-2.6924 1.0668,-4.6482 1.0668,-1.9812 3.0226,-3.048 1.9558,-1.0922 4.6228,-1.0922 2.4638,0 4.2672,1.0922 1.8034,1.0668 2.794,2.8702 l -3.8354,1.397 q -0.5588,-1.016 -1.4986,-1.397 -0.9398,-0.4064 -1.8542,-0.4064 -1.1176,0 -2.032,0.635 -0.889,0.6096 -1.4224,1.778 -0.5334,1.1684 -0.5334,2.8194 0,1.7018 0.5334,2.8702 0.5334,1.1684 1.4478,1.778002 0.9398,0.5842 2.0574,0.5842 0.5588,0 1.1938,-0.127 0.6604,-0.1524 1.27,-0.5334 0.6096,-0.381002 0.9906,-1.117602 l 3.7846,1.397002 q -1.0414,1.8034 -2.921,2.8702 -1.8796,1.0668 -4.318,1.0668 z m 8.91543,-0.3048 V 86.962808 h 12.3444 v 3.81 h -8.0264 v 3.429 h 7.9248 v 3.81 h -7.9248 v 5.918202 z m 14.57958,0 V 86.962808 h 4.318 v 13.157202 h 7.9502 v 3.81 z"
       id="text1"
       transform="translate(-62.857672,-80.837216)"
       aria-label="CFL" />
    <path
       style="font-weight:600;font-size:28.9278px;font-family:FreeSans;-inkscape-font-specification:'FreeSans Semi-Bold';fill:#0e1726;stroke-width:0.264583"
       d="m 19.365854,25.513083 q -0.318206,0 -0.954617,-0.115711 -0.607484,-0.115711 -1.243896,-0.347133 -1.504245,-0.549629 -3.210985,-0.752123 -1.70674,-0.202495 -3.413481,-0.202495 -1.3017506,0 -2.6324293,0.173567 -1.301751,0.144639 -2.5167186,0.549628 -0.144639,0.02893 -0.3182058,0.08678 -0.1735668,0.05785 -0.3471335,0.05785 -0.1735668,0 -0.4917726,-0.173567 -0.3182058,-0.202494 -0.3182058,-0.549628 0,-0.05785 0,-0.144639 0.028928,-0.115711 0.028928,-0.289278 0,-0.231422 0,-0.433917 0.028928,-0.231422 0.028928,-0.433917 v -0.318205 q 0,-0.231423 -0.1157112,-0.781051 -0.086783,-0.578556 -0.086783,-0.694267 0.028928,-0.723195 0.1735668,-1.967091 0.173566,-1.272814 0.4049884,-2.777059 0.2314224,-1.504246 0.4917725,-2.979564 0.2603502,-1.504245 0.433917,-2.690285 Q 5.4805105,9.5449383 5.5672939,8.9663823 5.6540773,8.2431873 5.7119329,7.6357035 5.7697885,6.9992919 5.9722831,6.5075194 6.2037055,5.9578912 6.7533337,5.697541 7.3318897,5.4371908 7.7947345,5.263624 9.2411244,4.7139958 10.774298,4.3090066 q 1.562101,-0.4049892 3.066347,-0.4049892 1.504245,0 2.979563,0.5207004 1.475318,0.5207004 2.545646,1.8224514 1.070329,-1.301751 2.516719,-1.8224514 1.475317,-0.5207004 2.979563,-0.5207004 1.533173,0 3.066347,0.433917 1.533173,0.4049892 2.979563,0.9256896 0.491773,0.1735668 1.041401,0.433917 0.549628,0.2603502 0.78105,0.8099784 0.231423,0.4917725 0.260351,1.1571119 0.05786,0.6364116 0.144639,1.301751 0.08678,0.578556 0.289278,1.7645957 0.202494,1.18604 0.433917,2.690285 0.26035,1.475318 0.491772,2.979564 0.26035,1.504245 0.404989,2.777068 0.173567,1.243896 0.173567,1.967091 0,0.115711 -0.08678,0.694267 -0.08678,0.549628 -0.08678,0.781051 v 1.619956 q 0,0.231423 -0.26035,0.491773 -0.231422,0.231422 -0.5207,0.231422 -0.347134,0 -0.694267,-0.144639 -1.18604,-0.404989 -2.487791,-0.549628 -1.301751,-0.173567 -2.63243,-0.173567 -1.70674,0 -3.41348,0.202495 -1.677813,0.202494 -3.210986,0.752123 -0.636411,0.202494 -1.243895,0.347133 -0.607484,0.115711 -0.92569,0.115711 z m -0.896762,-4.454881 q 0.144639,0 0.144639,-0.26035 v -3.876325 q 0,-1.475318 0,-3.15313 0,-1.70674 0.02893,-3.239914 0.02893,-1.5331729 0.08678,-2.5745737 Q 18.700515,7.4621367 18.295526,7.1150031 17.890536,6.7389417 17.456619,6.3918082 15.86559,5.118985 13.869572,5.118985 q -0.809978,0 -1.562101,0.144639 Q 11.555348,5.3793352 10.74537,5.5818298 9.9643194,5.7843244 9.154341,5.986819 8.3443627,6.1893136 7.6790233,6.6810862 7.3318897,6.9414363 7.2161785,7.2596421 7.1004673,7.5778479 7.0426117,8.0117649 6.8690449,9.0242379 6.7533337,10.094566 6.6665503,11.135967 6.5219113,12.14844 6.3194167,13.681614 6.0301387,15.214787 5.7697885,16.74796 5.5094383,18.281134 q -0.086783,0.462844 -0.1735668,0.954617 -0.086783,0.491773 -0.086783,0.92569 0,0.115711 0.057856,0.26035 0.057856,0.115711 0.1735668,0.115711 0.086783,0 0.3760614,-0.115711 0.3182058,-0.144639 0.5496282,-0.202495 1.3596066,-0.404989 2.7192131,-0.607484 1.359607,-0.202494 2.777069,-0.202494 1.764596,0 3.037419,0.318206 1.301751,0.289278 2.429935,0.838906 0.26035,0.115711 0.578556,0.318206 0.318206,0.173566 0.520699,0.173566 z m 1.764596,0 q 0.144639,0 0.376062,-0.115711 1.504245,-0.838906 3.008491,-1.18604 1.533173,-0.347133 3.210985,-0.347133 1.388535,0 2.748141,0.202494 1.388535,0.202495 2.719213,0.607484 0.231423,0.05786 0.520701,0.202495 0.318206,0.115711 0.404989,0.115711 0.08678,0 0.144639,-0.05786 0.08678,-0.144639 0.08678,-0.318205 0,-0.144639 -0.02893,-0.260351 -0.02893,-0.115711 -0.05786,-0.231422 -0.202485,-1.880303 -0.578546,-3.76061 Q 32.441219,14.028747 32.180869,12.14844 32.065158,11.135967 31.920519,10.094566 31.804808,9.0242379 31.660169,8.0117649 31.602313,7.5778479 31.486602,7.2596421 31.370891,6.9414363 31.023757,6.6810862 30.358418,6.1893136 29.548439,5.986819 28.767389,5.7843244 27.986338,5.5818298 27.17636,5.3793352 26.395309,5.263624 25.614259,5.118985 24.833208,5.118985 q -1.996018,0 -3.587047,1.2728232 -0.433917,0.3471335 -0.838906,0.7231949 -0.376061,0.3471336 -0.433917,0.8389062 0.05786,1.0703286 0.08678,2.6613577 0.02893,1.591029 0.02893,3.326697 0,1.70674 0,3.210985 v 3.644903 q 0,0.26035 0.144639,0.26035 z M 16.328435,8.9663823 q -0.173567,0 -0.26035,-0.057856 -1.648885,-0.7810506 -3.587047,-0.7810506 -0.809978,0 -1.591029,0.1735668 -0.781051,0.144639 -1.44639,0.4628448 -0.1735668,0.057856 -0.2314224,0.057856 -0.2603502,0 -0.433917,-0.1735668 -0.144639,-0.2024946 -0.144639,-0.4049892 0,-0.2603502 0.2603502,-0.3760614 1.7645962,-0.8389062 3.8184692,-0.8389062 1.041401,0 2.053874,0.2314224 1.012473,0.2024946 1.909235,0.6074838 0.318206,0.144639 0.318206,0.4628448 0,0.2314224 -0.202495,0.433917 -0.202495,0.2024946 -0.462845,0.2024946 z m 6.04591,0 q -0.289278,0 -0.491772,-0.2024946 -0.173567,-0.2024946 -0.173567,-0.433917 0,-0.3182058 0.462845,-0.5496282 0.491772,-0.2603502 1.186039,-0.4049892 0.723195,-0.1735668 1.44639,-0.2603502 0.723195,-0.086783 1.18604,-0.086783 2.082802,0 3.81847,0.8389062 0.26035,0.1157112 0.26035,0.3760614 0,0.2024946 -0.173567,0.4049892 -0.144639,0.1735668 -0.376061,0.1735668 -0.115712,0 -0.231423,-0.057856 -0.694267,-0.3182058 -1.475317,-0.4628448 -0.781051,-0.1735668 -1.591029,-0.1735668 -1.938163,0 -3.587048,0.7810506 -0.05785,0.028928 -0.144639,0.057856 -0.05785,0 -0.115711,-4e-7 z m -6.04591,2.8059967 q -0.02893,0 -0.08678,0 -0.02893,-0.02893 -0.08678,-0.02893 -1.0414,-0.404989 -2.198512,-0.665339 -1.157112,-0.289278 -2.314224,-0.289278 -1.44639,0 -2.7192134,0.549628 -0.086783,0.02893 -0.2024946,0.02893 -0.2024946,0 -0.3471335,-0.144639 -0.144639,-0.144639 -0.144639,-0.318206 0,-0.26035 0.2314224,-0.376062 0.8389061,-0.433917 1.7356681,-0.6074833 0.896762,-0.1735668 1.793523,-0.1735668 1.18604,0 2.37208,0.2603501 1.18604,0.26035 2.22744,0.723195 0.260351,0.115711 0.260351,0.433917 0,0.202495 -0.144639,0.404989 -0.144639,0.202495 -0.376062,0.202495 z m 6.04591,0 q -0.202494,0 -0.376061,-0.202495 -0.144639,-0.202494 -0.144639,-0.404989 0,-0.318206 0.26035,-0.433917 1.041401,-0.462845 2.227441,-0.723195 1.186039,-0.2603501 2.372079,-0.2603501 0.92569,0 1.822452,0.1735668 0.896761,0.1735663 1.70674,0.6074833 0.26035,0.115712 0.26035,0.376062 0,0.144639 -0.173567,0.318206 -0.144639,0.144639 -0.376061,0.144639 -0.08678,0 -0.173567,-0.02893 -1.272823,-0.549628 -2.719213,-0.549628 -1.157112,0 -2.314224,0.289278 -1.157112,0.26035 -2.198513,0.665339 -0.02893,0 -0.08678,0.02893 -0.02893,0 -0.08678,0 z m -6.103765,2.777069 q -0.144639,0 -0.347134,-0.08678 -0.202495,-0.08678 -0.347134,-0.144639 -0.202494,-0.08678 -0.404989,-0.144639 -0.173567,-0.05785 -0.404989,-0.115711 -0.636412,-0.173567 -1.301751,-0.26035 -0.636411,-0.115711 -1.301751,-0.115711 -0.983545,0 -1.909235,0.144639 -0.9256892,0.144639 -1.8803065,0.404989 -0.028928,0.02893 -0.1157112,0.02893 -0.2024946,0 -0.3471336,-0.144639 -0.144639,-0.173567 -0.144639,-0.347134 0,-0.231422 0.2314224,-0.347134 0.8678339,-0.462844 1.8803069,-0.665339 1.041401,-0.202495 2.053874,-0.202495 0.925689,0 1.851379,0.144639 0.925689,0.144639 1.735668,0.462845 0.231422,0.08678 0.491772,0.173567 0.260351,0.08678 0.462845,0.26035 l 0.05786,0.05786 q 0.144639,0.144639 0.144639,0.376061 0,0.202495 -0.115711,0.376062 -0.08678,0.144639 -0.289278,0.144639 z m 6.161621,0 q -0.202495,0 -0.318206,-0.144639 -0.08678,-0.144639 -0.08678,-0.347134 0,-0.202495 0.144639,-0.404989 l 0.05785,-0.05786 q 0.202495,-0.144639 0.462845,-0.231422 0.26035,-0.115711 0.491773,-0.202495 0.78105,-0.318206 1.70674,-0.462845 0.954617,-0.144639 1.880307,-0.144639 1.012473,0 2.024946,0.202495 1.0414,0.202495 1.909234,0.665339 0.231423,0.115712 0.231423,0.347134 0,0.173567 -0.144639,0.347134 -0.144639,0.144639 -0.347134,0.144639 -0.08678,0 -0.115711,-0.02893 -0.896762,-0.231423 -1.793523,-0.376062 -0.867834,-0.173566 -1.793524,-0.173566 -1.475318,0 -2.805997,0.376061 -0.202494,0.05786 -0.404989,0.115711 -0.173567,0.02893 -0.404989,0.144639 -0.144639,0.05786 -0.347134,0.144639 -0.173566,0.08678 -0.347133,0.08678 z m -6.479827,2.834924 q -0.08678,0 -0.26035,-0.05786 -0.867834,-0.347133 -1.880307,-0.607484 -1.012473,-0.289278 -1.967091,-0.289278 -0.983545,0 -1.8513788,0.231423 -0.867834,0.202494 -1.7935235,0.491772 -0.057856,0.02893 -0.144639,0.02893 -0.2024946,0 -0.3182058,-0.144639 -0.1157112,-0.144639 -0.1157112,-0.347133 0,-0.115712 0.057856,-0.231423 0.057856,-0.115711 0.2314224,-0.173567 1.0414007,-0.376061 2.1406569,-0.578555 1.099256,-0.202495 2.169585,-0.202495 1.041401,0 2.024946,0.202495 1.012473,0.202494 1.96709,0.665339 0.318206,0.144639 0.318206,0.433917 0,0.202494 -0.173567,0.404989 -0.173567,0.173567 -0.404989,0.173567 z m 6.798033,0 q -0.231423,0 -0.40499,-0.173567 -0.173566,-0.202495 -0.173566,-0.404989 0,-0.289278 0.318205,-0.433917 0.954618,-0.462845 1.938163,-0.665339 1.012473,-0.202495 2.024946,-0.202495 1.099256,0 2.198513,0.202495 1.099256,0.202494 2.140657,0.578555 0.289278,0.115712 0.289278,0.433917 0,0.173567 -0.115711,0.318206 -0.08678,0.144639 -0.318206,0.144639 -0.08678,0 -0.144639,-0.02893 -0.92569,-0.26035 -1.793524,-0.491772 -0.838906,-0.231423 -1.822451,-0.231423 -0.983545,0 -1.996018,0.289278 -1.012473,0.260351 -1.880307,0.607484 -0.173567,0.05786 -0.26035,0.05786 z"
       id="text2"
       aria-label="🕮" />
  </g>
</svg>
